  0
SECTION
  2
HEADER
  9
$ACADVER
  1
AC1015
  9
$ACADMAINTVER
 70
     6
  9
$DWGCODEPAGE
  3
ANSI_1252
  9
$INSBASE
 10
0.0
 20
0.0
 30
0.0
  9
$EXTMIN
 10
440.5783441707
 20
1575.6778302805
 30
0.0
  9
$EXTMAX
 10
484.4332656117
 20
1617.8964964202
 30
0.0
  9
$LIMMIN
 10
0.0
 20
0.0
  9
$LIMMAX
 10
420.0
 20
297.0
  9
$ORTHOMODE
 70
     0
  9
$REGENMODE
 70
     1
  9
$FILLMODE
 70
     1
  9
$QTEXTMODE
 70
     0
  9
$MIRRTEXT
 70
     1
  9
$LTSCALE
 40
1.0
  9
$ATTMODE
 70
     1
  9
$TEXTSIZE
 40
3.5
  9
$TRACEWID
 40
1.0
  9
$TEXTSTYLE
  7
Standard
  9
$CLAYER
  8
0
  9
$CELTYPE
  6
ByLayer
  9
$CECOLOR
 62
   256
  9
$CELTSCALE
 40
1.0
  9
$DISPSILH
 70
     0
  9
$DIMSCALE
 40
1.0
  9
$DIMASZ
 40
3.302
  9
$DIMEXO
 40
0.0
  9
$DIMDLI
 40
3.75
  9
$DIMRND
 40
0.0
  9
$DIMDLE
 40
0.0
  9
$DIMEXE
 40
1.0
  9
$DIMTP
 40
0.0
  9
$DIMTM
 40
0.0
  9
$DIMTXT
 40
3.5
  9
$DIMCEN
 40
2.5
  9
$DIMTSZ
 40
0.0
  9
$DIMTOL
 70
     0
  9
$DIMLIM
 70
     0
  9
$DIMTIH
 70
     1
  9
$DIMTOH
 70
     1
  9
$DIMSE1
 70
     0
  9
$DIMSE2
 70
     0
  9
$DIMTAD
 70
     1
  9
$DIMZIN
 70
     1
  9
$DIMBLK
  1

  9
$DIMASO
 70
     1
  9
$DIMSHO
 70
     1
  9
$DIMPOST
  1

  9
$DIMAPOST
  1

  9
$DIMALT
 70
     0
  9
$DIMALTD
 70
     3
  9
$DIMALTF
 40
0.0393700787
  9
$DIMLFAC
 40
1.0
  9
$DIMTOFL
 70
     1
  9
$DIMTVP
 40
0.0
  9
$DIMTIX
 70
     0
  9
$DIMSOXD
 70
     0
  9
$DIMSAH
 70
     0
  9
$DIMBLK1
  1

  9
$DIMBLK2
  1

  9
$DIMSTYLE
  2
ISO-25
  9
$DIMCLRD
 70
     0
  9
$DIMCLRE
 70
     0
  9
$DIMCLRT
 70
     0
  9
$DIMTFAC
 40
1.0
  9
$DIMGAP
 40
1.524
  9
$DIMJUST
 70
     0
  9
$DIMSD1
 70
     0
  9
$DIMSD2
 70
     0
  9
$DIMTOLJ
 70
     0
  9
$DIMTZIN
 70
     1
  9
$DIMALTZ
 70
     0
  9
$DIMALTTZ
 70
     0
  9
$DIMUPT
 70
     0
  9
$DIMDEC
 70
     2
  9
$DIMTDEC
 70
     2
  9
$DIMALTU
 70
     2
  9
$DIMALTTD
 70
     3
  9
$DIMTXSTY
  7
Standard
  9
$DIMAUNIT
 70
     0
  9
$DIMADEC
 70
     2
  9
$DIMALTRND
 40
0.0
  9
$DIMAZIN
 70
     0
  9
$DIMDSEP
 70
    44
  9
$DIMATFIT
 70
     3
  9
$DIMFRAC
 70
     0
  9
$DIMLDRBLK
  1

  9
$DIMLUNIT
 70
     2
  9
$DIMLWD
 70
    -2
  9
$DIMLWE
 70
    -2
  9
$DIMTMOVE
 70
     0
  9
$LUNITS
 70
     2
  9
$LUPREC
 70
     2
  9
$SKETCHINC
 40
1.0
  9
$FILLETRAD
 40
0.0
  9
$AUNITS
 70
     0
  9
$AUPREC
 70
     2
  9
$MENU
  1
.
  9
$ELEVATION
 40
0.0
  9
$PELEVATION
 40
0.0
  9
$THICKNESS
 40
0.0
  9
$LIMCHECK
 70
     0
  9
$CHAMFERA
 40
0.0
  9
$CHAMFERB
 40
0.0
  9
$CHAMFERC
 40
0.0
  9
$CHAMFERD
 40
0.0
  9
$SKPOLY
 70
     0
  9
$TDCREATE
 40
2461053.585948739
  9
$TDUCREATE
 40
2461053.502615405
  9
$TDUPDATE
 40
2461053.586071598
  9
$TDUUPDATE
 40
2461053.502738264
  9
$TDINDWG
 40
0.0000000116
  9
$TDUSRTIMER
 40
0.0000000116
  9
$USRTIMER
 70
     1
  9
$ANGBASE
 50
0.0
  9
$ANGDIR
 70
     0
  9
$PDMODE
 70
     0
  9
$PDSIZE
 40
-1.0
  9
$PLINEWID
 40
0.0
  9
$SPLFRAME
 70
     0
  9
$SPLINETYPE
 70
     6
  9
$SPLINESEGS
 70
     8
  9
$HANDSEED
  5
E9
  9
$SURFTAB1
 70
     6
  9
$SURFTAB2
 70
     6
  9
$SURFTYPE
 70
     6
  9
$SURFU
 70
     6
  9
$SURFV
 70
     6
  9
$UCSBASE
  2

  9
$UCSNAME
  2

  9
$UCSORG
 10
0.0
 20
0.0
 30
0.0
  9
$UCSXDIR
 10
1.0
 20
0.0
 30
0.0
  9
$UCSYDIR
 10
0.0
 20
1.0
 30
0.0
  9
$UCSORTHOREF
  2

  9
$UCSORTHOVIEW
 70
     0
  9
$UCSORGTOP
 10
0.0
 20
0.0
 30
0.0
  9
$UCSORGBOTTOM
 10
0.0
 20
0.0
 30
0.0
  9
$UCSORGLEFT
 10
0.0
 20
0.0
 30
0.0
  9
$UCSORGRIGHT
 10
0.0
 20
0.0
 30
0.0
  9
$UCSORGFRONT
 10
0.0
 20
0.0
 30
0.0
  9
$UCSORGBACK
 10
0.0
 20
0.0
 30
0.0
  9
$PUCSBASE
  2

  9
$PUCSNAME
  2

  9
$PUCSORG
 10
0.0
 20
0.0
 30
0.0
  9
$PUCSXDIR
 10
1.0
 20
0.0
 30
0.0
  9
$PUCSYDIR
 10
0.0
 20
1.0
 30
0.0
  9
$PUCSORTHOREF
  2

  9
$PUCSORTHOVIEW
 70
     0
  9
$PUCSORGTOP
 10
0.0
 20
0.0
 30
0.0
  9
$PUCSORGBOTTOM
 10
0.0
 20
0.0
 30
0.0
  9
$PUCSORGLEFT
 10
0.0
 20
0.0
 30
0.0
  9
$PUCSORGRIGHT
 10
0.0
 20
0.0
 30
0.0
  9
$PUCSORGFRONT
 10
0.0
 20
0.0
 30
0.0
  9
$PUCSORGBACK
 10
0.0
 20
0.0
 30
0.0
  9
$USERI1
 70
     0
  9
$USERI2
 70
     0
  9
$USERI3
 70
     0
  9
$USERI4
 70
     0
  9
$USERI5
 70
     0
  9
$USERR1
 40
0.0
  9
$USERR2
 40
0.0
  9
$USERR3
 40
0.0
  9
$USERR4
 40
0.0
  9
$USERR5
 40
0.0
  9
$WORLDVIEW
 70
     1
  9
$SHADEDGE
 70
     3
  9
$SHADEDIF
 70
    70
  9
$TILEMODE
 70
     1
  9
$MAXACTVP
 70
    64
  9
$PINSBASE
 10
0.0
 20
0.0
 30
0.0
  9
$PLIMCHECK
 70
     0
  9
$PEXTMIN
 10
1.0000000000E+20
 20
1.0000000000E+20
 30
1.0000000000E+20
  9
$PEXTMAX
 10
-1.0000000000E+20
 20
-1.0000000000E+20
 30
-1.0000000000E+20
  9
$PLIMMIN
 10
0.0
 20
0.0
  9
$PLIMMAX
 10
420.0
 20
297.0
  9
$UNITMODE
 70
     0
  9
$VISRETAIN
 70
     1
  9
$PLINEGEN
 70
     0
  9
$PSLTSCALE
 70
     1
  9
$TREEDEPTH
 70
  3020
  9
$CMLSTYLE
  2
Standard
  9
$CMLJUST
 70
     0
  9
$CMLSCALE
 40
20.0
  9
$PROXYGRAPHICS
 70
     1
  9
$MEASUREMENT
 70
     1
  9
$CELWEIGHT
370
    -1
  9
$ENDCAPS
280
     0
  9
$JOINSTYLE
280
     0
  9
$LWDISPLAY
290
     1
  9
$INSUNITS
 70
     4
  9
$HYPERLINKBASE
  1

  9
$STYLESHEET
  1

  9
$XEDIT
290
     1
  9
$CEPSNTYPE
380
     0
  9
$PSTYLEMODE
290
     1
  9
$FINGERPRINTGUID
  2
{4ddad74e-e4d9-45a8-b2be-a151656168bb}
  9
$VERSIONGUID
  2
{FAEB1C32-E019-11D5-929B-00C0DF256EC4}
  9
$EXTNAMES
290
     1
  9
$PSVPSCALE
 40
0.0
  9
$OLESTARTUP
290
     0
  0
ENDSEC
  0
SECTION
  2
CLASSES
  0
CLASS
  1
ACDBDICTIONARYWDFLT
  2
AcDbDictionaryWithDefault
  3
ObjectDBX Classes
 90
        0
280
     0
281
     0
  0
CLASS
  1
VISUALSTYLE
  2
AcDbVisualStyle
  3
ObjectDBX Classes
 90
     4095
280
     0
281
     0
  0
CLASS
  1
MATERIAL
  2
AcDbMaterial
  3
ObjectDBX Classes
 90
     1153
280
     0
281
     0
  0
CLASS
  1
SCALE
  2
AcDbScale
  3
ObjectDBX Classes
 90
     1153
280
     0
281
     0
  0
CLASS
  1
TABLESTYLE
  2
AcDbTableStyle
  3
ObjectDBX Classes
 90
     4095
280
     0
281
     0
  0
CLASS
  1
MLEADERSTYLE
  2
AcDbMLeaderStyle
  3
ACDB_MLEADERSTYLE_CLASS
 90
     4095
280
     0
281
     0
  0
CLASS
  1
SUN
  2
AcDbSun
  3
SCENEOE
 90
     1153
280
     0
281
     0
  0
CLASS
  1
ACDBPLACEHOLDER
  2
AcDbPlaceHolder
  3
ObjectDBX Classes
 90
        0
280
     0
281
     0
  0
CLASS
  1
LAYOUT
  2
AcDbLayout
  3
ObjectDBX Classes
 90
        0
280
     0
281
     0
  0
ENDSEC
  0
SECTION
  2
TABLES
  0
TABLE
  2
VPORT
  5
8
330
0
100
AcDbSymbolTable
 70
     1
  0
VPORT
  5
29
330
8
100
AcDbSymbolTableRecord
100
AcDbViewportTableRecord
  2
*Active
 70
     0
 10
0.0
 20
0.0
 11
1.0
 21
1.0
 12
462.5058048912
 22
1596.7871633504
 13
0.0
 23
0.0
 14
10.0
 24
10.0
 15
10.0
 25
10.0
 16
0.0
 26
0.0
 36
1.0
 17
0.0
 27
0.0
 37
0.0
 40
43.0630394625
 41
1.0387566792
 42
50.0
 43
0.0
 44
0.0
 50
0.0
 51
0.0
 71
     0
 72
   100
 73
     1
 74
     3
 75
     0
 76
     0
 77
     0
 78
     0
281
     0
 65
     1
110
0.0
120
0.0
130
0.0
111
1.0
121
0.0
131
0.0
112
0.0
122
1.0
132
0.0
 79
     0
146
0.0
  0
ENDTAB
  0
TABLE
  2
LTYPE
  5
5
330
0
100
AcDbSymbolTable
 70
     6
  0
LTYPE
  5
14
330
5
100
AcDbSymbolTableRecord
100
AcDbLinetypeTableRecord
  2
ByBlock
 70
     0
  3

 72
    65
 73
     0
 40
0.0
  0
LTYPE
  5
15
330
5
100
AcDbSymbolTableRecord
100
AcDbLinetypeTableRecord
  2
ByLayer
 70
     0
  3

 72
    65
 73
     0
 40
0.0
  0
LTYPE
  5
16
330
5
100
AcDbSymbolTableRecord
100
AcDbLinetypeTableRecord
  2
Continuous
 70
     0
  3
Solid line
 72
    65
 73
     0
 40
0.0
  0
LTYPE
  5
5E
330
5
100
AcDbSymbolTableRecord
100
AcDbLinetypeTableRecord
  2
HIDDEN
 70
     0
  3
Hidden __ __ __ __ __ __ __ __ __ __ __ __ __ __
 72
    65
 73
     2
 40
1.905
 49
1.27
 74
     0
 49
-0.635
 74
     0
  0
LTYPE
  5
5F
330
5
100
AcDbSymbolTableRecord
100
AcDbLinetypeTableRecord
  2
PHANTOM
 70
     0
  3
Phantom ______  __  __  ______  __  __  ______
 72
    65
 73
     6
 40
12.7
 49
6.35
 74
     0
 49
-1.27
 74
     0
 49
1.27
 74
     0
 49
-1.27
 74
     0
 49
1.27
 74
     0
 49
-1.27
 74
     0
  0
LTYPE
  5
60
330
5
100
AcDbSymbolTableRecord
100
AcDbLinetypeTableRecord
  2
CENTER
 70
     0
  3
Center ____ _ ____ _ ____ _ ____ _ ____ _ ____
 72
    65
 73
     4
 40
10.16
 49
6.35
 74
     0
 49
-1.27
 74
     0
 49
1.27
 74
     0
 49
-1.27
 74
     0
  0
LTYPE
  5
61
330
5
100
AcDbSymbolTableRecord
100
AcDbLinetypeTableRecord
  2
CENTERX2
 70
     0
  3
Center (2x) ________  __  ________  __  _____
 72
    65
 73
     4
 40
20.32
 49
12.7
 74
     0
 49
-2.54
 74
     0
 49
2.54
 74
     0
 49
-2.54
 74
     0
  0
LTYPE
  5
62
330
5
100
AcDbSymbolTableRecord
100
AcDbLinetypeTableRecord
  2
DOT2
 70
     0
  3
Dot (.5x) ........................................
 72
    65
 73
     2
 40
0.635
 49
0.0
 74
     0
 49
-0.635
 74
     0
  0
ENDTAB
  0
TABLE
  2
LAYER
  5
2
330
0
100
AcDbSymbolTable
 70
     1
  0
LAYER
  5
10
330
2
100
AcDbSymbolTableRecord
100
AcDbLayerTableRecord
  2
0
 70
     0
 62
     7
  6
Continuous
370
    -3
390
F
  0
ENDTAB
  0
TABLE
  2
STYLE
  5
3
330
0
100
AcDbSymbolTable
 70
     1
  0
STYLE
  5
11
330
3
100
AcDbSymbolTableRecord
100
AcDbTextStyleTableRecord
  2
Standard
 70
     0
 40
0.0
 41
1.0
 50
0.0
 71
     0
 42
3.5
  3
txt
  4

  0
ENDTAB
  0
TABLE
  2
VIEW
  5
6
330
0
100
AcDbSymbolTable
 70
     0
  0
ENDTAB
  0
TABLE
  2
UCS
  5
7
330
0
100
AcDbSymbolTable
 70
     0
  0
ENDTAB
  0
TABLE
  2
APPID
  5
9
330
0
100
AcDbSymbolTable
 70
     1
  0
APPID
  5
12
330
9
100
AcDbSymbolTableRecord
100
AcDbRegAppTableRecord
  2
ACAD
 70
     0
  0
ENDTAB
  0
TABLE
  2
DIMSTYLE
  5
A
330
0
100
AcDbSymbolTable
 70
     1
100
AcDbDimStyleTable
  0
DIMSTYLE
105
27
330
A
100
AcDbSymbolTableRecord
100
AcDbDimStyleTableRecord
  2
ISO-25
 70
     0
 41
2.5
 42
0.625
 43
3.75
 44
1.25
 73
     0
 74
     0
 77
     1
 78
     8
140
2.5
141
2.5
143
0.0393700787
147
0.625
171
     3
172
     1
178
     0
271
     2
272
     2
274
     3
278
    44
283
     0
284
     8
340
11
  0
ENDTAB
  0
TABLE
  2
BLOCK_RECORD
  5
1
330
0
100
AcDbSymbolTable
 70
     1
  0
BLOCK_RECORD
  5
1F
330
1
100
AcDbSymbolTableRecord
100
AcDbBlockTableRecord
  2
*Model_Space
340
22
  0
BLOCK_RECORD
  5
1B
330
1
100
AcDbSymbolTableRecord
100
AcDbBlockTableRecord
  2
*Paper_Space
340
1E
  0
BLOCK_RECORD
  5
23
330
1
100
AcDbSymbolTableRecord
100
AcDbBlockTableRecord
  2
*Paper_Space0
340
26
  0
ENDTAB
  0
ENDSEC
  0
SECTION
  2
BLOCKS
  0
BLOCK
  5
20
330
1F
100
AcDbEntity
  8
0
100
AcDbBlockBegin
  2
*Model_Space
 70
     0
 10
0.0
 20
0.0
 30
0.0
  3
*Model_Space
  1

  0
ENDBLK
  5
21
330
1F
100
AcDbEntity
  8
0
100
AcDbBlockEnd
  0
BLOCK
  5
1C
330
1B
100
AcDbEntity
 67
     1
  8
0
100
AcDbBlockBegin
  2
*Paper_Space
 70
     0
 10
0.0
 20
0.0
 30
0.0
  3
*Paper_Space
  1

  0
ENDBLK
  5
1D
330
1B
100
AcDbEntity
 67
     1
  8
0
100
AcDbBlockEnd
  0
BLOCK
  5
24
330
23
100
AcDbEntity
  8
0
100
AcDbBlockBegin
  2
*Paper_Space0
 70
     0
 10
0.0
 20
0.0
 30
0.0
  3
*Paper_Space0
  1

  0
ENDBLK
  5
25
330
23
100
AcDbEntity
  8
0
100
AcDbBlockEnd
  0
ENDSEC
  0
SECTION
  2
ENTITIES
  0
SPLINE
  5
67
330
1F
100
AcDbEntity
  8
0
  6
Continuous
 62
     7
370
    25
100
AcDbSpline
210
0.0
220
0.0
230
1.0
 70
     8
 71
     3
 72
    26
 73
    22
 74
     0
 42
0.00000001
 43
0.00000001
 40
0.0
 40
0.0
 40
0.0
 40
0.0
 40
0.0053431935830463
 40
0.0619394769637731
 40
0.1185479400005805
 40
0.1751706060816684
 40
0.2318091582385161
 40
0.2884649199758638
 40
0.3451388497365026
 40
0.4018315479618356
 40
0.458543275106317
 40
0.5152739785347177
 40
0.5720233259874973
 40
0.6287907432359006
 40
0.6855754536426711
 40
0.7423765175651529
 40
0.7991928698480615
 40
0.8560233540154167
 40
0.9128667521504609
 40
0.9697218098213463
 40
1.0
 40
1.0
 40
1.0
 40
1.0
 10
477.4200833839096
 20
1594.733200078959
 30
0.0
 10
477.4240148539998
 20
1594.757697870373
 30
0.0
 10
477.469589321273
 20
1595.041681664587
 30
0.0
 10
477.5141091638299
 20
1595.59246662563
 30
0.0
 10
477.549971145186
 20
1596.383097632627
 30
0.0
 10
477.5352908946758
 20
1597.17707815512
 30
0.0
 10
477.476142537748
 20
1597.970899050476
 30
0.0
 10
477.3710794139658
 20
1598.762411125557
 30
0.0
 10
477.2208470697217
 20
1599.549104363934
 30
0.0
 10
477.0257794011851
 20
1600.328578490979
 30
0.0
 10
476.7864958477054
 20
1601.098426285798
 30
0.0
 10
476.503713141099
 20
1601.856274549043
 30
0.0
 10
476.1782934024642
 20
1602.599782468824
 30
0.0
 10
475.8112295324312
 20
1603.326652853093
 30
0.0
 10
475.4036417593009
 20
1604.034634331734
 30
0.0
 10
474.9567891089139
 20
1604.721546267346
 30
0.0
 10
474.4720068920104
 20
1605.385220933024
 30
0.0
 10
473.9509223547333
 20
1606.023752817894
 30
0.0
 10
473.3946285450562
 20
1606.634600287813
 30
0.0
 10
472.8983841424884
 20
1607.127035460423
 30
0.0
 10
472.5836652202117
 20
1607.410480667572
 30
0.0
 10
472.4743026104538
 20
1607.508975881501
 30
0.0
  0
SPLINE
  5
69
330
1F
100
AcDbEntity
  8
0
  6
Continuous
 62
     7
370
    25
100
AcDbSpline
210
0.0
220
0.0
230
1.0
 70
     8
 71
     3
 72
    39
 73
    35
 74
     0
 42
0.00000001
 43
0.00000001
 40
0.0
 40
0.0
 40
0.0
 40
0.0
 40
0.0172652597182579
 40
0.0491271698548754
 40
0.0809941610752607
 40
0.1128647936716353
 40
0.1447383717053395
 40
0.1766142045165143
 40
0.208491603524683
 40
0.2403697549108916
 40
0.2722478539298592
 40
0.304125189410239
 40
0.3360010331833262
 40
0.3678746369774924
 40
0.3997452308281209
 40
0.4316120234179511
 40
0.4634742047573441
 40
0.4953309515611599
 40
0.5271814356027033
 40
0.5590248352202892
 40
0.5908603500163034
 40
0.6226872186208833
 40
0.6545047391965136
 40
0.6863122921416486
 40
0.718109364224111
 40
0.7498955731538687
 40
0.7816706914110487
 40
0.8134346680005774
 40
0.8451876467327086
 40
0.8769299796485936
 40
0.9086622343347662
 40
0.9403851941052811
 40
0.9720998503679534
 40
0.9999999999999999
 40
0.9999999999999999
 40
0.9999999999999999
 40
0.9999999999999999
 10
472.4743026104538
 20
1607.508975881501
 30
0.0
 10
472.3612237406358
 20
1607.60736085877
 30
0.0
 10
472.0394651957201
 20
1607.887308891314
 30
0.0
 10
471.4861008073217
 20
1608.323435684205
 30
0.0
 10
470.8074192573004
 20
1608.805384366464
 30
0.0
 10
470.1031948356568
 20
1609.25103560518
 30
0.0
 10
469.3761458306563
 20
1609.659552117013
 30
0.0
 10
468.6283727481591
 20
1610.029517620261
 30
0.0
 10
467.8622248799592
 20
1610.359821208092
 30
0.0
 10
467.0800608535032
 20
1610.649424159156
 30
0.0
 10
466.2843028982902
 20
1610.897427222967
 30
0.0
 10
465.4774117144309
 20
1611.103056673713
 30
0.0
 10
464.6618835244426
 20
1611.265671096396
 30
0.0
 10
463.8402421496932
 20
1611.384762028055
 30
0.0
 10
463.0150316081355
 20
1611.459956111359
 30
0.0
 10
462.1888081838102
 20
1611.491016458081
 30
0.0
 10
461.3641324938854
 20
1611.477843729998
 30
0.0
 10
460.5435614277098
 20
1611.420476774171
 30
0.0
 10
459.7296400123062
 20
1611.319092825788
 30
0.0
 10
458.9248932182896
 20
1611.174007242045
 30
0.0
 10
458.1318177375834
 20
1610.985672744486
 30
0.0
 10
457.3528737766146
 20
1610.754678140621
 30
0.0
 10
456.590476887824
 20
1610.481746519174
 30
0.0
 10
455.8469899802492
 20
1610.167732849759
 30
0.0
 10
455.124715243735
 20
1609.813621187234
 30
0.0
 10
454.4258872647424
 20
1609.420520720614
 30
0.0
 10
453.7526628719158
 20
1608.989663544075
 30
0.0
 10
453.1071246629908
 20
1608.522393521334
 30
0.0
 10
452.4912352757549
 20
1608.020186060761
 30
0.0
 10
451.9069774278027
 20
1607.484550512417
 30
0.0
 10
451.3558032472058
 20
1606.917368622745
 30
0.0
 10
450.840662539968
 20
1606.319604909014
 30
0.0
 10
450.3777109316026
 20
1605.721040365883
 30
0.0
 10
450.106089268944
 20
1605.309708884376
 30
0.0
 10
449.978968415026
 20
1605.11720284984
 30
0.0
  0
SPLINE
  5
6C
330
1F
100
AcDbEntity
  8
0
  6
Continuous
 62
     7
370
    25
100
AcDbSpline
210
0.0
220
0.0
230
1.0
 70
     8
 71
     3
 72
    16
 73
    12
 74
     0
 42
0.00000001
 43
0.00000001
 40
0.0
 40
0.0
 40
0.0
 40
0.0
 40
0.0419810012387204
 40
0.1622850175921586
 40
0.2898045393237853
 40
0.4155536321530541
 40
0.5405993737506359
 40
0.665022782549115
 40
0.7896134486668757
 40
0.9133345614699526
 40
1.0
 40
1.0
 40
1.0
 40
1.0
 10
468.1340449651883
 20
1583.851246030867
 30
0.0
 10
468.0492578064303
 20
1583.823268664707
 30
0.0
 10
467.721497983066
 20
1583.715117186049
 30
0.0
 10
467.1265496990092
 20
1583.550738007621
 30
0.0
 10
466.3474844160316
 20
1583.374746881214
 30
0.0
 10
465.5467023304461
 20
1583.241477909459
 30
0.0
 10
464.7437045443445
 20
1583.152539112694
 30
0.0
 10
463.9368309856818
 20
1583.107811279073
 30
0.0
 10
463.1292435266873
 20
1583.106723577227
 30
0.0
 10
462.4022385876806
 20
1583.143472903773
 30
0.0
 10
461.9466387517612
 20
1583.191870740838
 30
0.0
 10
461.7589615484231
 20
1583.21180747038
 30
0.0
  0
SPLINE
  5
6D
330
1F
100
AcDbEntity
  8
0
  6
Continuous
 62
     7
370
    25
100
AcDbSpline
210
0.0
220
0.0
230
1.0
 70
     8
 71
     3
 72
    16
 73
    12
 74
     0
 42
0.00000001
 43
0.00000001
 40
0.0
 40
0.0
 40
0.0
 40
0.0
 40
0.0813634344058599
 40
0.2014354803305573
 40
0.3282324414588866
 40
0.4535773433305501
 40
0.5782805261249263
 40
0.7027519380663342
 40
0.8273436640866996
 40
0.9529842203968174
 40
0.9999999999999999
 40
0.9999999999999999
 40
0.9999999999999999
 40
0.9999999999999999
 10
448.2330041634224
 20
1595.157591941119
 30
0.0
 10
448.1982567410804
 20
1595.325190483369
 30
0.0
 10
448.1122308283246
 20
1595.740122487006
 30
0.0
 10
448.0138283617965
 20
1596.420136924256
 30
0.0
 10
447.941508531521
 20
1597.193757668183
 30
0.0
 10
447.9157966796864
 20
1597.977324966801
 30
0.0
 10
447.9357891634385
 20
1598.753930920611
 30
0.0
 10
448.0016383279273
 20
1599.524261153838
 30
0.0
 10
448.1129601618068
 20
1600.289883132914
 30
0.0
 10
448.235542530286
 20
1600.889153831449
 30
0.0
 10
448.3239801655803
 20
1601.234247454932
 30
0.0
 10
448.3480624811675
 20
1601.328219365423
 30
0.0
  0
SPLINE
  5
6F
330
1F
100
AcDbEntity
  8
0
  6
Continuous
 62
     7
370
    25
100
AcDbSpline
210
0.0
220
0.0
230
1.0
 70
     8
 71
     3
 72
     9
 73
     5
 74
     0
 42
0.00000001
 43
0.00000001
 40
0.0
 40
0.0
 40
0.0
 40
0.0
 40
0.6166612449874921
 40
1.0
 40
1.0
 40
1.0
 40
1.0
 10
477.1340346057613
 20
1593.255724677403
 30
0.0
 10
477.2070624035539
 20
1593.557543249501
 30
0.0
 10
477.3254869006117
 20
1594.046983074934
 30
0.0
 10
477.3894795892376
 20
1594.544012899035
 30
0.0
 10
477.4140104668255
 20
1594.734543693009
 30
0.0
  0
LWPOLYLINE
  5
73
330
1F
100
AcDbEntity
  8
0
  6
Continuous
 62
     7
370
    25
100
AcDbPolyline
 90
      104
 70
   128
 43
0.0
 10
471.9566606029
 20
1607.0726830188
 10
471.3041427337
 20
1607.6175603348
 10
470.6201234323
 20
1608.1247915245
 10
469.9071472954
 20
1608.5924896547
 10
469.1678666412
 20
1609.0189148576
 10
468.4050316422
 20
1609.4024808034
 10
467.6214800947
 20
1609.7417606015
 10
466.8201268618
 20
1610.035492109
 10
466.0039530304
 20
1610.2825826252
 10
465.1759948206
 20
1610.4821129573
 10
464.3393322914
 20
1610.6333408392
 10
463.4970778823
 20
1610.7357036933
 10
462.652364835
 20
1610.7888207231
 10
461.8083355376
 20
1610.7924943298
 10
460.9681298345
 20
1610.7467108473
 10
460.1348733461
 20
1610.6516405931
 10
459.3116658412
 20
1610.5076372348
 10
458.5015697058
 20
1610.3152364744
 10
457.7075985508
 20
1610.0751540554
 10
456.932706001
 20
1609.7882831001
 10
456.1797747076
 20
1609.4556907873
 10
455.4516056245
 20
1609.0786143823
 10
454.7509075884
 20
1608.6584566341
 10
454.0802872422
 20
1608.196780557
 10
453.4422393374
 20
1607.6953036165
 10
452.8391374543
 20
1607.1558913396
 10
452.2732251714
 20
1606.5805503754
 10
451.7466077196
 20
1605.9714210302
 10
451.2612441505
 20
1605.3307693051
 10
450.8189400483
 20
1604.6609784666
 10
450.4213408134
 20
1603.9645401807
 10
450.0699255411
 20
1603.2440452434
 10
449.7660015193
 20
1602.5021739433
 10
449.5106993652
 20
1601.7416860903
 10
449.3049688196
 20
1600.9654107492
 10
449.1495752138
 20
1600.1762357153
 10
449.0450966221
 20
1599.3770967715
 10
448.9919217117
 20
1598.5709667671
 10
448.9902482968
 20
1597.7608445588
 10
449.0400826026
 20
1596.9497438543
 10
449.1412392422
 20
1596.1406820016
 10
449.2933419064
 20
1595.3366687639
 10
449.4958247631
 20
1594.5406951232
 10
449.7479345628
 20
1593.7557221538
 10
450.0487334406
 20
1592.9846700066
 10
450.3971024049
 20
1592.2304070463
 10
450.7917455001
 20
1591.4957391806
 10
451.2311946282
 20
1590.7833994223
 10
451.7138150095
 20
1590.0960377221
 10
452.2378112644
 20
1589.4362111106
 10
452.8012340924
 20
1588.8063741861
 10
453.4019875238
 20
1588.2088699834
 10
454.0378367161
 20
1587.6459212573
 10
454.7064162687
 20
1587.1196222141
 10
455.4052390217
 20
1586.6319307209
 10
456.1317053086
 20
1586.1846610219
 10
456.8831126271
 20
1585.7794769898
 10
457.6566656926
 20
1585.4178859359
 10
458.4494868369
 20
1585.1012330026
 10
459.2586267132
 20
1584.8306961597
 10
460.0810752681
 20
1584.6072818219
 10
460.9137729389
 20
1584.4318211052
 10
461.7536220357
 20
1584.3049667352
 10
462.5974982645
 20
1584.2271906182
 10
463.4422623505
 20
1584.1987820867
 10
464.2847717156
 20
1584.2198468222
 10
465.1218921698
 20
1584.2903064625
 10
465.95050957
 20
1584.4098988931
 10
466.767541405
 20
1584.5781792224
 10
467.5699482628
 20
1584.7945214364
 10
468.354745137
 20
1585.0581207279
 10
469.1190125319
 20
1585.3679964902
 10
469.8599073225
 20
1585.7229959652
 10
470.5746733315
 20
1586.1217985314
 10
471.2606515824
 20
1586.5629206172
 10
471.915290191
 20
1587.0447212194
 10
472.5361538588
 20
1587.565408008
 10
473.1209329321
 20
1588.1230439942
 10
473.6674519944
 20
1588.7155547353
 10
474.1736779589
 20
1589.3407360525
 10
474.6377276316
 20
1589.9962622303
 10
475.0578747174
 20
1590.6796946681
 10
475.4325562415
 20
1591.3884909525
 10
475.7603783641
 20
1592.1200143147
 10
476.0401215652
 20
1592.8715434397
 10
476.2707451818
 20
1593.6402825899
 10
476.451391279
 20
1594.4233720051
 10
476.5813878413
 20
1595.2178985413
 10
476.660251273
 20
1596.0209065076
 10
476.687688197
 20
1596.8294086615
 10
476.6635965461
 20
1597.640397322
 10
476.5880659429
 20
1598.450855558
 10
476.4613773661
 20
1599.2577684116
 10
476.2840021055
 20
1600.058134114
 10
476.0566000088
 20
1600.8489752522
 10
475.7800170268
 20
1601.6273498453
 10
475.4552820662
 20
1602.3903622886
 10
475.0836031625
 20
1603.1351741258
 10
474.6663629856
 20
1603.8590146078
 10
474.2051136964
 20
1604.5591910006
 10
473.7015711724
 20
1605.2330986019
 10
473.157608625
 20
1605.8782304313
 10
472.5752496306
 20
1606.492186556
 10
471.9566606029
 20
1607.0726830188
  0
SPLINE
  5
76
330
1F
100
AcDbEntity
  8
0
  6
Continuous
 62
     7
370
    25
100
AcDbSpline
210
0.0
220
0.0
230
1.0
 70
     8
 71
     3
 72
    12
 73
     8
 74
     0
 42
0.00000001
 43
0.00000001
 40
0.0
 40
0.0
 40
0.0
 40
0.0
 40
0.1551628952629267
 40
0.3107808936715051
 40
0.5809646607021764
 40
0.8511537625200994
 40
1.0
 40
1.0
 40
1.0
 40
1.0
 10
468.593568068822
 20
1583.606353816874
 30
0.0
 10
468.2861176961225
 20
1583.507106176353
 30
0.0
 10
467.670315178225
 20
1583.308319795347
 30
0.0
 10
466.4880561804912
 20
1583.022978416127
 30
0.0
 10
465.0386328236179
 20
1582.802911598936
 30
0.0
 10
463.5775831113219
 20
1582.741073522248
 30
0.0
 10
462.6879894387652
 20
1582.792787500622
 30
0.0
 10
462.3719953957141
 20
1582.811156908603
 30
0.0
  0
LWPOLYLINE
  5
7B
330
1F
100
AcDbEntity
  8
0
  6
Continuous
 62
     7
370
    25
100
AcDbPolyline
 90
       99
 70
   128
 43
0.0
 10
470.9794646793
 20
1606.0468040459
 10
470.3663617164
 20
1606.5572365596
 10
469.7223155612
 20
1607.030441957
 10
469.0499727377
 20
1607.4644757357
 10
468.3520960466
 20
1607.8575543578
 10
467.6315532129
 20
1608.2080625788
 10
466.8913051018
 20
1608.5145600854
 10
466.1343935514
 20
1608.7757874134
 10
465.3639288738
 20
1608.9906711239
 10
464.5830770735
 20
1609.1583282135
 10
463.7950468381
 20
1609.2780697433
 10
463.0030763528
 20
1609.3494036696
 10
462.2104199943
 20
1609.3720368661
 10
461.4203349575
 20
1609.3458763281
 10
460.6360678714
 20
1609.2710295549
 10
459.8608414576
 20
1609.1478041078
 10
459.0978412877
 20
1608.9767063468
 10
458.3502026931
 20
1608.7584393492
 10
457.6209978811
 20
1608.4939000209
 10
456.9132233108
 20
1608.1841754107
 10
456.2297873797
 20
1607.8305382435
 10
455.5734984726
 20
1607.4344416904
 10
454.9470534213
 20
1606.9975133969
 10
454.3530264231
 20
1606.5215487952
 10
453.7938584622
 20
1606.0085037259
 10
453.2718472797
 20
1605.4604864013
 10
452.7891379315
 20
1604.879748742
 10
452.347713974
 20
1604.2686771237
 10
451.9493893128
 20
1603.6297825708
 10
451.5958007494
 20
1602.965690438
 10
451.288401255
 20
1602.2791296223
 10
451.0284540002
 20
1601.5729213494
 10
450.8170271639
 20
1600.8499675805
 10
450.6549895443
 20
1600.1132390878
 10
450.5430069889
 20
1599.3657632467
 10
450.4815396579
 20
1598.6106115958
 10
450.4708401338
 20
1597.8508872151
 10
450.5109523832
 20
1597.0897119751
 10
450.6017115763
 20
1596.3302137081
 10
450.7427447641
 20
1595.5755133554
 10
450.9334724109
 20
1594.8287121427
 10
451.1731107761
 20
1594.0928788363
 10
451.460675134
 20
1593.3710371331
 10
451.7949838212
 20
1592.6661532355
 10
452.1746630914
 20
1591.9811236627
 10
452.5981527612
 20
1591.318763348
 10
453.0637126205
 20
1590.6817940721
 10
453.5694295842
 20
1590.0728332785
 10
454.1132255528
 20
1589.4943833175
 10
454.6928659518
 20
1588.9488211642
 10
455.3059689147
 20
1588.4383886505
 10
455.9500150699
 20
1587.965183253
 10
456.6223578934
 20
1587.5311494743
 10
457.3202345845
 20
1587.1380708523
 10
458.0407774182
 20
1586.7875626313
 10
458.7810255293
 20
1586.4810651247
 10
459.5379370797
 20
1586.2198377967
 10
460.3084017573
 20
1586.0049540862
 10
461.0892535576
 20
1585.8372969966
 10
461.877283793
 20
1585.7175554668
 10
462.6692542783
 20
1585.6462215405
 10
463.4619106368
 20
1585.623588344
 10
464.2519956736
 20
1585.649748882
 10
465.0362627597
 20
1585.7245956552
 10
465.8114891736
 20
1585.8478211022
 10
466.5744893434
 20
1586.0189188633
 10
467.322127938
 20
1586.2371858609
 10
468.05133275
 20
1586.5017251892
 10
468.7591073203
 20
1586.8114497994
 10
469.4425432514
 20
1587.1650869665
 10
470.0988321585
 20
1587.5611835197
 10
470.7252772098
 20
1587.9981118132
 10
471.319304208
 20
1588.4740764149
 10
471.878472169
 20
1588.9871214842
 10
472.4004833514
 20
1589.5351388088
 10
472.8831926996
 20
1590.1158764681
 10
473.3246166571
 20
1590.7269480864
 10
473.7229413183
 20
1591.3658426393
 10
474.0765298818
 20
1592.0299347721
 10
474.3839293761
 20
1592.7164955878
 10
474.643876631
 20
1593.4227038607
 10
474.8553034673
 20
1594.1456576296
 10
475.0173410868
 20
1594.8823861222
 10
475.1293236422
 20
1595.6298619633
 10
475.1907909732
 20
1596.3850136143
 10
475.2014904974
 20
1597.144737995
 10
475.161378248
 20
1597.905913235
 10
475.0706190549
 20
1598.665411502
 10
474.9295858671
 20
1599.4201118547
 10
474.7388582202
 20
1600.1669130674
 10
474.4992198551
 20
1600.9027463738
 10
474.2116554971
 20
1601.624588077
 10
473.87734681
 20
1602.3294719746
 10
473.4976675397
 20
1603.0145015474
 10
473.07417787
 20
1603.6768618621
 10
472.6086180106
 20
1604.3138311379
 10
472.1029010469
 20
1604.9227919316
 10
471.5591050783
 20
1605.5012418926
 10
470.9794646793
 20
1606.0468040459
  0
SPLINE
  5
7F
330
1F
100
AcDbEntity
  8
0
  6
Continuous
 62
     7
370
    25
100
AcDbSpline
210
0.0
220
0.0
230
1.0
 70
     8
 71
     3
 72
    12
 73
     8
 74
     0
 42
0.00000001
 43
0.00000001
 40
0.0
 40
0.0
 40
0.0
 40
0.0
 40
0.399001407773381
 40
0.6238092555622706
 40
0.7870827346272278
 40
0.9042865316814548
 40
1.0
 40
1.0
 40
1.0
 40
1.0
 10
462.3719953957141
 20
1582.811156908603
 30
0.0
 10
462.2670334325175
 20
1582.898632922002
 30
0.0
 10
462.1029331490388
 20
1583.035395213401
 30
0.0
 10
461.9012439004741
 20
1583.15837502533
 30
0.0
 10
461.7878911761665
 20
1583.205961057083
 30
0.0
 10
461.7217178049524
 20
1583.213483157106
 30
0.0
 10
461.7055599923264
 20
1583.195286336482
 30
0.0
 10
461.6982965123821
 20
1583.187106253898
 30
0.0
  0
LWPOLYLINE
  5
80
330
1F
100
AcDbEntity
  8
0
  6
Continuous
 62
     7
370
    25
100
AcDbPolyline
 90
       17
 70
   128
 43
0.0
 10
467.5711788781
 20
1577.223682918
 10
467.5709033968
 20
1577.2661194974
 10
467.5423283939
 20
1577.3271875889
 10
467.4898041547
 20
1577.3975901293
 10
467.4213270183
 20
1577.4666089698
 10
467.3473220081
 20
1577.5237366179
 10
467.279055716
 20
1577.5602759067
 10
467.2269210661
 20
1577.570664061
 10
467.1988550864
 20
1577.5533195783
 10
467.1991305677
 20
1577.510882999
 10
467.2277055705
 20
1577.4498149075
 10
467.2802298098
 20
1577.3794123671
 10
467.3487069461
 20
1577.3103935265
 10
467.4227119564
 20
1577.2532658785
 10
467.4909782484
 20
1577.2167265896
 10
467.5431128983
 20
1577.2063384354
 10
467.5711788781
 20
1577.223682918
  0
LWPOLYLINE
  5
82
330
1F
100
AcDbEntity
  8
0
  6
Continuous
 62
     7
370
    25
100
AcDbPolyline
 90
        3
 70
   128
 43
0.0
 10
448.4643153047
 20
1602.1651792245
 10
448.4582158909
 20
1602.1520397448
 10
448.212842814
 20
1601.5887431921
  0
SPLINE
  5
85
330
1F
100
AcDbEntity
  8
0
  6
Continuous
 62
     7
370
    25
100
AcDbSpline
210
0.0
220
0.0
230
1.0
 70
     8
 71
     3
 72
    10
 73
     6
 74
     0
 42
0.00000001
 43
0.00000001
 40
0.0
 40
0.0
 40
0.0
 40
0.0
 40
0.139885235121843
 40
0.9897649010600467
 40
1.0
 40
1.0
 40
1.0
 40
1.0
 10
468.1356647372774
 20
1583.846656819149
 30
0.0
 10
468.1378231829967
 20
1583.848433019288
 30
0.0
 10
468.1530953724581
 20
1583.861000611236
 30
0.0
 10
468.1886512944959
 20
1583.852616211287
 30
0.0
 10
468.2185230891688
 20
1583.844253195226
 30
0.0
 10
468.2188785542608
 20
1583.844153677929
 30
0.0
  0
SPLINE
  5
86
330
1F
100
AcDbEntity
  8
0
  6
Continuous
 62
     7
370
    25
100
AcDbSpline
210
0.0
220
0.0
230
1.0
 70
     8
 71
     3
 72
    10
 73
     6
 74
     0
 42
0.00000001
 43
0.00000001
 40
0.0
 40
0.0
 40
0.0
 40
0.0
 40
0.3516442320803742
 40
0.702136617362393
 40
1.0
 40
1.0
 40
1.0
 40
1.0
 10
468.2188785542608
 20
1583.844153677929
 30
0.0
 10
468.2575867280926
 20
1583.829323247863
 30
0.0
 10
468.3348762831578
 20
1583.799710966327
 30
0.0
 10
468.4688532120516
 20
1583.711346417087
 30
0.0
 10
468.5543086762375
 20
1583.639404776615
 30
0.0
 10
468.593568068822
 20
1583.606353816874
 30
0.0
  0
LWPOLYLINE
  5
89
330
1F
100
AcDbEntity
  8
0
  6
Continuous
 62
     7
370
    25
100
AcDbPolyline
 90
       20
 70
   128
 43
0.0
 10
463.0166571458
 20
1597.5273413761
 10
462.8781147514
 20
1597.6158459072
 10
462.7192874615
 20
1597.6577029642
 10
462.5573866773
 20
1597.6483766854
 10
462.409956861
 20
1597.5888777177
 10
462.2929743208
 20
1597.4856536977
 10
462.2191159301
 20
1597.3498905496
 10
462.1963853915
 20
1597.1963003169
 10
462.2272459117
 20
1597.0415268847
 10
462.3083532744
 20
1596.9023423559
 10
462.4309182383
 20
1596.7938295338
 10
462.5816589878
 20
1596.7277474664
 10
462.7442404237
 20
1596.7112571713
 10
462.9010443248
 20
1596.7461456275
 10
463.0350785552
 20
1596.8286321297
 10
463.1318184264
 20
1596.9497779854
 10
463.1807806723
 20
1597.0964551613
 10
463.1766594737
 20
1597.2527689095
 10
463.1199014265
 20
1597.40178021
 10
463.0166571458
 20
1597.5273413761
  0
SPLINE
  5
8A
330
1F
100
AcDbEntity
  8
0
  6
Continuous
 62
     7
370
    25
100
AcDbSpline
210
0.0
220
0.0
230
1.0
 70
     8
 71
     3
 72
    10
 73
     6
 74
     0
 42
0.00000001
 43
0.00000001
 40
0.0
 40
0.0
 40
0.0
 40
0.0
 40
0.3987328515846617
 40
0.7983422568104765
 40
1.0
 40
1.0
 40
1.0
 40
1.0
 10
447.9943193225915
 20
1601.843887148868
 30
0.0
 10
448.0452102250587
 20
1601.795852940917
 30
0.0
 10
448.1471039059161
 20
1601.699678929101
 30
0.0
 10
448.2521185595042
 20
1601.567656417238
 30
0.0
 10
448.2931372579429
 20
1601.496962724936
 30
0.0
 10
448.3068944342291
 20
1601.47325291394
 30
0.0
  0
SPLINE
  5
8B
330
1F
100
AcDbEntity
  8
0
  6
Continuous
 62
     7
370
    25
100
AcDbSpline
210
0.0
220
0.0
230
1.0
 70
     8
 71
     3
 72
     9
 73
     5
 74
     0
 42
0.00000001
 43
0.00000001
 40
0.0
 40
0.0
 40
0.0
 40
0.0
 40
0.5081235167201245
 40
1.0
 40
1.0
 40
1.0
 40
1.0
 10
448.3068944342291
 20
1601.47325291394
 30
0.0
 10
448.3224783691605
 20
1601.439780609107
 30
0.0
 10
448.3531479493292
 20
1601.37390626216
 30
0.0
 10
448.3450999168807
 20
1601.334954085225
 30
0.0
 10
448.3411412789823
 20
1601.315794425418
 30
0.0
  0
SPLINE
  5
8C
330
1F
100
AcDbEntity
  8
0
  6
Continuous
 62
     7
370
    25
100
AcDbSpline
210
0.0
220
0.0
230
1.0
 70
     8
 71
     3
 72
    12
 73
     8
 74
     0
 42
0.00000001
 43
0.00000001
 40
0.0
 40
0.0
 40
0.0
 40
0.0
 40
0.1184356705162638
 40
0.2360050498908504
 40
0.4197124631030879
 40
0.7102143477795989
 40
1.0
 40
1.0
 40
1.0
 40
1.0
 10
448.2294537167701
 20
1595.111738673967
 30
0.0
 10
448.2316449134403
 20
1595.127907856148
 30
0.0
 10
448.2360112793945
 20
1595.160127951924
 30
0.0
 10
448.1930112381882
 20
1595.252973193846
 30
0.0
 10
448.0933836127911
 20
1595.398869561173
 30
0.0
 10
447.9218440339409
 20
1595.595465210262
 30
0.0
 10
447.7745599319422
 20
1595.731949016275
 30
0.0
 10
447.7010087752389
 20
1595.800106690236
 30
0.0
  0
SPLINE
  5
8D
330
1F
100
AcDbEntity
  8
0
  6
Continuous
 62
     7
370
    25
100
AcDbSpline
210
0.0
220
0.0
230
1.0
 70
     8
 71
     3
 72
    11
 73
     7
 74
     0
 42
0.00000001
 43
0.00000001
 40
0.0
 40
0.0
 40
0.0
 40
0.0
 40
0.270674643193806
 40
0.5413778620180453
 40
0.8120757161655803
 40
1.0
 40
1.0
 40
1.0
 40
1.0
 10
447.7010087752389
 20
1595.800106690236
 30
0.0
 10
447.6251301739209
 20
1596.350373257029
 30
0.0
 10
447.4733649606391
 20
1597.450964483291
 30
0.0
 10
447.497515311892
 20
1599.107623239264
 30
0.0
 10
447.6788695793047
 20
1600.57709717505
 30
0.0
 10
447.9026311388935
 20
1601.475683736761
 30
0.0
 10
447.9943193225916
 20
1601.843887148868
 30
0.0
  0
LWPOLYLINE
  5
92
330
1F
100
AcDbEntity
  8
0
  6
Continuous
 62
     7
370
    25
100
AcDbPolyline
 90
       17
 70
   128
 43
0.0
 10
442.2077049087
 20
1599.6243757684
 10
442.2074294274
 20
1599.6668123477
 10
442.1788544245
 20
1599.7278804392
 10
442.1263301853
 20
1599.7982829796
 10
442.0578530489
 20
1599.8673018202
 10
441.9838480387
 20
1599.9244294682
 10
441.9155817466
 20
1599.9609687571
 10
441.8634470968
 20
1599.9713569113
 10
441.835381117
 20
1599.9540124287
 10
441.8356565983
 20
1599.9115758493
 10
441.8642316012
 20
1599.8505077578
 10
441.9167558404
 20
1599.7801052174
 10
441.9852329768
 20
1599.7110863769
 10
442.059237987
 20
1599.6539587288
 10
442.1275042791
 20
1599.61741944
 10
442.1796389289
 20
1599.6070312857
 10
442.2077049087
 20
1599.6243757684
  0
SPLINE
  5
99
330
1F
100
AcDbEntity
  8
0
  6
Continuous
 62
     7
370
    25
100
AcDbSpline
210
0.0
220
0.0
230
1.0
 70
     8
 71
     3
 72
    11
 73
     7
 74
     0
 42
0.00000001
 43
0.00000001
 40
0.0
 40
0.0
 40
0.0
 40
0.0
 40
0.2706738686564732
 40
0.5413763089992397
 40
0.8120733811134239
 40
0.9999999999999999
 40
0.9999999999999999
 40
0.9999999999999999
 40
0.9999999999999999
 10
477.9641816515214
 20
1599.180159004559
 30
0.0
 10
478.0400599438641
 20
1598.629894012377
 30
0.0
 10
478.1918245380803
 20
1597.529305943356
 30
0.0
 10
478.1676744223244
 20
1595.872651990893
 30
0.0
 10
477.9863213624418
 20
1594.403176356781
 30
0.0
 10
477.7625602009199
 20
1593.504586441461
 30
0.0
 10
477.6708713515471
 20
1593.13637832691
 30
0.0
  0
SPLINE
  5
9D
330
1F
100
AcDbEntity
  8
0
  6
Continuous
 62
     7
370
    25
100
AcDbSpline
210
0.0
220
0.0
230
1.0
 70
     8
 71
     3
 72
    10
 73
     6
 74
     0
 42
0.00000001
 43
0.00000001
 40
0.0
 40
0.0
 40
0.0
 40
0.0
 40
0.3987330320983328
 40
0.7983426233789108
 40
1.0
 40
1.0
 40
1.0
 40
1.0
 10
477.6708713515471
 20
1593.13637832691
 30
0.0
 10
477.6180189276774
 20
1593.180193211994
 30
0.0
 10
477.5121978912262
 20
1593.267919303099
 30
0.0
 10
477.3814640216738
 20
1593.344616585937
 30
0.0
 10
477.3178021216253
 20
1593.366601792232
 30
0.0
 10
477.2964507212662
 20
1593.373975353833
 30
0.0
  0
SPLINE
  5
9F
330
1F
100
AcDbEntity
  8
0
  6
Continuous
 62
     7
370
    25
100
AcDbSpline
210
0.0
220
0.0
230
1.0
 70
     8
 71
     3
 72
     9
 73
     5
 74
     0
 42
0.00000001
 43
0.00000001
 40
0.0
 40
0.0
 40
0.0
 40
0.0
 40
0.5081234620959866
 40
1.0
 40
1.0
 40
1.0
 40
1.0
 10
477.2964507212662
 20
1593.373975353833
 30
0.0
 10
477.2680078088194
 20
1593.379786276815
 30
0.0
 10
477.2120314279426
 20
1593.391222322217
 30
0.0
 10
477.1897625479803
 20
1593.364958792503
 30
0.0
 10
477.1788090084018
 20
1593.352040378435
 30
0.0
  0
SPLINE
  5
A0
330
1F
100
AcDbEntity
  8
0
  6
Continuous
 62
     7
370
    25
100
AcDbSpline
210
0.0
220
0.0
230
1.0
 70
     8
 71
     3
 72
    13
 73
     9
 74
     0
 42
0.00000001
 43
0.00000001
 40
0.0
 40
0.0
 40
0.0
 40
0.0
 40
0.0000090947218595
 40
0.1393253902894653
 40
0.3947076214182412
 40
0.6499873677577825
 40
0.9054658521259207
 40
1.0
 40
1.0
 40
1.0
 40
1.0
 10
477.1788090084016
 20
1593.352040378434
 30
0.0
 10
477.1788137061963
 20
1593.352058594782
 30
0.0
 10
477.2507809495774
 20
1593.631121526864
 30
0.0
 10
477.429943508336
 20
1594.428736410298
 30
0.0
 10
477.6043975106293
 20
1595.769852696531
 30
0.0
 10
477.6141154136729
 20
1597.371157681407
 30
0.0
 10
477.4750512197705
 20
1598.636944276198
 30
0.0
 10
477.3297426461103
 20
1599.360635851819
 30
0.0
 10
477.2904965706138
 20
1599.556096129886
 30
0.0
  0
SPLINE
  5
A1
330
1F
100
AcDbEntity
  8
0
  6
Continuous
 62
     7
370
    25
100
AcDbSpline
210
0.0
220
0.0
230
1.0
 70
     8
 71
     3
 72
    12
 73
     8
 74
     0
 42
0.00000001
 43
0.00000001
 40
0.0
 40
0.0
 40
0.0
 40
0.0
 40
0.1184356668794646
 40
0.2360050422028452
 40
0.4197124720592859
 40
0.710214396932489
 40
1.0
 40
1.0
 40
1.0
 40
1.0
 10
477.2904965706138
 20
1599.556096129886
 30
0.0
 10
477.300233093892
 20
1599.565585060559
 30
0.0
 10
477.3196349231532
 20
1599.584493515612
 30
0.0
 10
477.3987130138014
 20
1599.569256951159
 30
0.0
 10
477.536339291105
 20
1599.505100711546
 30
0.0
 10
477.7373360969126
 20
1599.371871481457
 30
0.0
 10
477.8886287198163
 20
1599.244010551922
 30
0.0
 10
477.9641816515214
 20
1599.180159004559
 30
0.0
  0
SPLINE
  5
A4
330
1F
100
AcDbEntity
  8
0
  6
Continuous
 62
     7
370
    25
100
AcDbSpline
210
0.0
220
0.0
230
1.0
 70
     8
 71
     3
 72
    12
 73
     8
 74
     0
 42
0.00000001
 43
0.00000001
 40
0.0
 40
0.0
 40
0.0
 40
0.0
 40
0.3990509569087812
 40
0.623795890968128
 40
0.7870776953538934
 40
0.9042903856806459
 40
1.0
 40
1.0
 40
1.0
 40
1.0
 10
463.2932088334706
 20
1612.169096566223
 30
0.0
 10
463.3945927695133
 20
1612.073884544984
 30
0.0
 10
463.5530759948227
 20
1611.92504924816
 30
0.0
 10
463.718148250928
 20
1611.723315974942
 30
0.0
 10
463.7967325679853
 20
1611.600973446049
 30
0.0
 10
463.8292657103131
 20
1611.521102129101
 30
0.0
 10
463.8240143065868
 20
1611.493248770487
 30
0.0
 10
463.8216537750018
 20
1611.480728549955
 30
0.0
  0
SPLINE
  5
A5
330
1F
100
AcDbEntity
  8
0
  6
Continuous
 62
     7
370
    25
100
AcDbSpline
210
0.0
220
0.0
230
1.0
 70
     8
 71
     3
 72
    12
 73
     8
 74
     0
 42
0.00000001
 43
0.00000001
 40
0.0
 40
0.0
 40
0.0
 40
0.0
 40
0.000009095364683
 40
0.2337631656939808
 40
0.4891228540174296
 40
0.744435715860467
 40
1.0
 40
1.0
 40
1.0
 40
1.0
 10
463.8216537750018
 20
1611.480728549955
 30
0.0
 10
463.8216340367691
 20
1611.480730808993
 30
0.0
 10
463.3143347751979
 20
1611.53879116241
 30
0.0
 10
462.2481500228163
 20
1611.610995736581
 30
0.0
 10
460.6321799366921
 20
1611.548151039575
 30
0.0
 10
458.9920847629314
 20
1611.309386925513
 30
0.0
 10
457.94369619421
 20
1611.000619788891
 30
0.0
 10
457.4192439336769
 20
1610.846160242487
 30
0.0
  0
SPLINE
  5
A6
330
1F
100
AcDbEntity
  8
0
  6
Continuous
 62
     7
370
    25
100
AcDbSpline
210
0.0
220
0.0
230
1.0
 70
     8
 71
     3
 72
    10
 73
     6
 74
     0
 42
0.00000001
 43
0.00000001
 40
0.0
 40
0.0
 40
0.0
 40
0.0
 40
0.4975379232042509
 40
0.9942120529926791
 40
1.0
 40
1.0
 40
1.0
 40
1.0
 10
457.4192439336769
 20
1610.846160242487
 30
0.0
 10
457.4228229560998
 20
1610.865674306962
 30
0.0
 10
457.4299747872758
 20
1610.904668556845
 30
0.0
 10
457.4027468536677
 20
1610.96889590599
 30
0.0
 10
457.3846633089503
 20
1611.002660694846
 30
0.0
 10
457.3844550014913
 20
1611.003049637252
 30
0.0
  0
SPLINE
  5
A7
330
1F
100
AcDbEntity
  8
0
  6
Continuous
 62
     7
370
    25
100
AcDbSpline
210
0.0
220
0.0
230
1.0
 70
     8
 71
     3
 72
    10
 73
     6
 74
     0
 42
0.00000001
 43
0.00000001
 40
0.0
 40
0.0
 40
0.0
 40
0.0
 40
0.3517318377080961
 40
0.7023171601456499
 40
1.0
 40
1.0
 40
1.0
 40
1.0
 10
457.3844550014913
 20
1611.003049637252
 30
0.0
 10
457.3585674159275
 20
1611.045403351139
 30
0.0
 10
457.3068766287222
 20
1611.129972721521
 30
0.0
 10
457.1929064435627
 20
1611.261114746876
 30
0.0
 10
457.1099659303833
 20
1611.338259313379
 30
0.0
 10
457.071879889855
 20
1611.373683872183
 30
0.0
  0
SPLINE
  5
A8
330
1F
100
AcDbEntity
  8
0
  6
Continuous
 62
     7
370
    25
100
AcDbSpline
210
0.0
220
0.0
230
1.0
 70
     8
 71
     3
 72
    12
 73
     8
 74
     0
 42
0.00000001
 43
0.00000001
 40
0.0
 40
0.0
 40
0.0
 40
0.0
 40
0.155344872132331
 40
0.3111556345473586
 40
0.5818260255264011
 40
0.8524975132731076
 40
1.0
 40
1.0
 40
1.0
 40
1.0
 10
457.0718798898549
 20
1611.373683872183
 30
0.0
 10
457.3795700027723
 20
1611.473373782444
 30
0.0
 10
457.9958730130656
 20
1611.673052580076
 30
0.0
 10
459.1798424580884
 20
1611.959092950941
 30
0.0
 10
460.6318905996882
 20
1612.17889004665
 30
0.0
 10
462.0923002814564
 20
1612.239296309641
 30
0.0
 10
462.9800669407043
 20
1612.187401440886
 30
0.0
 10
463.2932088334706
 20
1612.169096566223
 30
0.0
  0
LINE
  5
B5
330
1F
100
AcDbEntity
  8
0
  6
Continuous
 62
     7
370
    25
100
AcDbLine
 10
471.4656886709
 20
1581.0635234516
 30
0.0
 11
480.0240103045
 21
1590.0482132101
 31
0.0
  0
LINE
  5
B6
330
1F
100
AcDbEntity
  8
0
  6
Continuous
 62
     7
370
    25
100
AcDbLine
 10
479.4157842854
 20
1590.6275758856
 30
0.0
 11
470.8363429876
 21
1581.6207142996
 31
0.0
  0
LINE
  5
B7
330
1F
100
AcDbEntity
  8
0
  6
Continuous
 62
     7
370
    25
100
AcDbLine
 10
454.0523103161
 20
1613.0282687359
 30
0.0
 11
445.5012100184
 21
1604.051160074
 31
0.0
  0
LINE
  5
B8
330
1F
100
AcDbEntity
  8
0
  6
Continuous
 62
     7
370
    25
100
AcDbLine
 10
446.1305557017
 20
1603.493969226
 30
0.0
 11
454.6605363351
 21
1612.4489060604
 31
0.0
  0
LINE
  5
B9
330
1F
100
AcDbEntity
  8
0
  6
Continuous
 62
     7
370
    25
100
AcDbLine
 10
476.99036147
 20
1592.7253548117
 30
0.0
 11
477.1283660896
 21
1593.2164245632
 31
0.0
  0
LINE
  5
BA
330
1F
100
AcDbEntity
  8
0
  6
Continuous
 62
     7
370
    25
100
AcDbLine
 10
449.0888344157
 20
1603.5086029764
 30
0.0
 11
448.4643153047
 21
1602.1651792245
 31
0.0
  0
LINE
  5
BB
330
1F
100
AcDbEntity
  8
0
  6
Continuous
 62
     7
370
    25
100
AcDbLine
 10
475.6684968159
 20
1589.5187367086
 30
0.0
 11
476.2930159269
 21
1590.8621604605
 31
0.0
  0
LINE
  5
BC
330
1F
100
AcDbEntity
  8
0
  6
Continuous
 62
     7
370
    25
100
AcDbLine
 10
477.1263396452
 20
1593.2169734317
 30
0.0
 11
477.1340346058
 21
1593.2557246774
 31
0.0
  0
LINE
  5
BD
330
1F
100
AcDbEntity
  8
0
  6
Continuous
 62
     7
370
    25
100
AcDbLine
 10
468.8410655535
 20
1577.0837692702
 30
0.0
 11
474.206993465
 21
1578.6365107885
 31
0.0
  0
LINE
  5
BE
330
1F
100
AcDbEntity
  8
0
  6
Continuous
 62
     7
370
    25
100
AcDbLine
 10
468.8410655535
 20
1577.0837692702
 30
0.0
 11
462.3719953957
 21
1582.8111569086
 31
0.0
  0
LINE
  5
BF
330
1F
100
AcDbEntity
  8
0
  6
Continuous
 62
     7
370
    25
100
AcDbLine
 10
474.206993465
 20
1578.6365107885
 30
0.0
 11
468.5935680688
 21
1583.6063538169
 31
0.0
  0
LINE
  5
C0
330
1F
100
AcDbEntity
  8
0
  6
Continuous
 62
     7
370
    25
100
AcDbLine
 10
468.8410655535
 20
1577.0837692702
 30
0.0
 11
468.1874849042
 21
1575.6778302805
 31
0.0
  0
LINE
  5
C1
330
1F
100
AcDbEntity
  8
0
  6
Continuous
 62
     7
370
    25
100
AcDbLine
 10
474.206993465
 20
1578.6365107885
 30
0.0
 11
473.5534128158
 21
1577.2305717988
 31
0.0
  0
LINE
  5
C2
330
1F
100
AcDbEntity
  8
0
  6
Continuous
 62
     7
370
    25
100
AcDbLine
 10
468.1874849042
 20
1575.6778302805
 30
0.0
 11
473.5534128158
 21
1577.2305717988
 31
0.0
  0
LINE
  5
C3
330
1F
100
AcDbEntity
  8
0
  6
Continuous
 62
     7
370
    25
100
AcDbLine
 10
468.1874849042
 20
1575.6778302805
 30
0.0
 11
461.1173359353
 21
1581.9373827075
 31
0.0
  0
LINE
  5
C4
330
1F
100
AcDbEntity
  8
0
  6
Continuous
 62
     7
370
    25
100
AcDbLine
 10
461.6982965124
 20
1583.1871062539
 30
0.0
 11
461.1173359353
 21
1581.9373827075
 31
0.0
  0
LINE
  5
C5
330
1F
100
AcDbEntity
  8
0
  6
Continuous
 62
     7
370
    25
100
AcDbLine
 10
448.2294537168
 20
1595.111738674
 30
0.0
 11
447.6484931397
 21
1593.8620151276
 31
0.0
  0
LINE
  5
C6
330
1F
100
AcDbEntity
  8
0
  6
Continuous
 62
     7
370
    25
100
AcDbLine
 10
440.5783441707
 20
1600.1215675545
 30
0.0
 11
447.6484931397
 21
1593.8620151276
 31
0.0
  0
LINE
  5
C7
330
1F
100
AcDbEntity
  8
0
  6
Continuous
 62
     7
370
    25
100
AcDbLine
 10
441.23192482
 20
1601.5275065442
 30
0.0
 11
440.5783441707
 21
1600.1215675545
 31
0.0
  0
LINE
  5
C8
330
1F
100
AcDbEntity
  8
0
  6
Continuous
 62
     7
370
    25
100
AcDbLine
 10
441.23192482
 20
1601.5275065442
 30
0.0
 11
447.7010087752
 21
1595.8001066902
 31
0.0
  0
LINE
  5
C9
330
1F
100
AcDbEntity
  8
0
  6
Continuous
 62
     7
370
    25
100
AcDbLine
 10
441.23192482
 20
1601.5275065442
 30
0.0
 11
442.3806363994
 21
1606.8139581786
 31
0.0
  0
LINE
  5
CA
330
1F
100
AcDbEntity
  8
0
  6
Continuous
 62
     7
370
    25
100
AcDbLine
 10
442.3806363994
 20
1606.8139581786
 30
0.0
 11
447.9943193226
 21
1601.8438871489
 31
0.0
  0
LINE
  5
CB
330
1F
100
AcDbEntity
  8
0
  6
Continuous
 62
     7
370
    25
100
AcDbLine
 10
442.3806363994
 20
1606.8139581786
 30
0.0
 11
441.7270557501
 21
1605.4080191889
 31
0.0
  0
LINE
  5
CC
330
1F
100
AcDbEntity
  8
0
  6
Continuous
 62
     7
370
    25
100
AcDbLine
 10
440.5783441707
 20
1600.1215675545
 30
0.0
 11
441.7270557501
 21
1605.4080191889
 31
0.0
  0
LINE
  5
CD
330
1F
100
AcDbEntity
  8
0
  6
Continuous
 62
     7
370
    25
100
AcDbLine
 10
484.4332656117
 20
1593.4527591462
 30
0.0
 11
483.2845540323
 21
1588.1663075119
 31
0.0
  0
LINE
  5
CE
330
1F
100
AcDbEntity
  8
0
  6
Continuous
 62
     7
370
    25
100
AcDbLine
 10
483.2845540323
 20
1588.1663075119
 30
0.0
 11
477.6708713515
 21
1593.1363783269
 31
0.0
  0
LINE
  5
CF
330
1F
100
AcDbEntity
  8
0
  6
Continuous
 62
     7
370
    25
100
AcDbLine
 10
477.9641816515
 20
1599.1801590046
 30
0.0
 11
484.4332656117
 21
1593.4527591462
 31
0.0
  0
LINE
  5
D0
330
1F
100
AcDbEntity
  8
0
  6
Continuous
 62
     7
370
    25
100
AcDbLine
 10
482.6309733831
 20
1586.7603685221
 30
0.0
 11
479.5177126084
 21
1589.5166922041
 31
0.0
  0
LINE
  5
D1
330
1F
100
AcDbEntity
  8
0
  6
Continuous
 62
     7
370
    25
100
AcDbLine
 10
478.8883669251
 20
1590.073883052
 30
0.0
 11
476.7478398497
 21
1591.9689974985
 31
0.0
  0
LINE
  5
D2
330
1F
100
AcDbEntity
  8
0
  6
Continuous
 62
     7
370
    25
100
AcDbLine
 10
483.2845540323
 20
1588.1663075119
 30
0.0
 11
482.6309733831
 21
1586.7603685221
 31
0.0
  0
LINE
  5
D3
330
1F
100
AcDbEntity
  8
0
  6
Continuous
 62
     7
370
    25
100
AcDbLine
 10
477.1788090084
 20
1593.3520403784
 30
0.0
 11
477.1340346058
 21
1593.2557246774
 31
0.0
  0
LINE
  5
D4
330
1F
100
AcDbEntity
  8
0
  6
Continuous
 62
     7
370
    25
100
AcDbLine
 10
477.2904965706
 20
1599.5560961299
 30
0.0
 11
477.2347256816
 21
1599.4361255227
 31
0.0
  0
LINE
  5
D5
330
1F
100
AcDbEntity
  8
0
  6
Continuous
 62
     7
370
    25
100
AcDbLine
 10
456.8241248782
 20
1617.8964964202
 30
0.0
 11
451.4581969666
 21
1616.3437549019
 31
0.0
  0
LINE
  5
D6
330
1F
100
AcDbEntity
  8
0
  6
Continuous
 62
     7
370
    25
100
AcDbLine
 10
456.8241248782
 20
1617.8964964202
 30
0.0
 11
463.2932088335
 21
1612.1690965662
 31
0.0
  0
LINE
  5
D7
330
1F
100
AcDbEntity
  8
0
  6
Continuous
 62
     7
370
    25
100
AcDbLine
 10
451.4581969666
 20
1616.3437549019
 30
0.0
 11
457.0718798899
 21
1611.3736838722
 31
0.0
  0
LINE
  5
D8
330
1F
100
AcDbEntity
  8
0
  6
Continuous
 62
     7
370
    25
100
AcDbLine
 10
457.4192439337
 20
1610.8461602425
 30
0.0
 11
457.374469531
 21
1610.7498445415
 31
0.0
  0
LINE
  5
D9
330
1F
100
AcDbEntity
  8
0
  6
Continuous
 62
     7
370
    25
100
AcDbLine
 10
463.821653775
 20
1611.48072855
 30
0.0
 11
463.7763233565
 21
1611.3832167848
 31
0.0
  0
LINE
  5
DA
330
1F
100
AcDbEntity
  8
0
  6
Continuous
 62
     7
370
    25
100
AcDbLine
 10
450.8046163174
 20
1614.9378159122
 30
0.0
 11
453.5532339559
 21
1612.5043288265
 31
0.0
  0
LINE
  5
DB
330
1F
100
AcDbEntity
  8
0
  6
Continuous
 62
     7
370
    25
100
AcDbLine
 10
454.1825796392
 20
1611.9471379785
 30
0.0
 11
456.0871048567
 21
1610.2609676447
 31
0.0
  0
LINE
  5
DC
330
1F
100
AcDbEntity
  8
0
  6
Continuous
 62
     7
370
    25
100
AcDbLine
 10
451.4581969666
 20
1616.3437549019
 30
0.0
 11
450.8046163174
 21
1614.9378159122
 31
0.0
  0
LINE
  5
DD
330
1F
100
AcDbEntity
  8
0
  6
Continuous
 62
     7
370
    25
100
AcDbLine
 10
448.3929642894
 20
1601.6627783045
 30
0.0
 11
448.3250024834
 21
1601.4233852729
 31
0.0
  0
LINE
  5
DE
330
1F
100
AcDbEntity
  8
0
  6
Continuous
 62
     7
370
    25
100
AcDbLine
 10
477.2964507213
 20
1593.3739753538
 30
0.0
 11
477.0170604929
 21
1592.7729697766
 31
0.0
  0
LINE
  5
DF
330
1F
100
AcDbEntity
  8
0
  6
Continuous
 62
     7
370
    25
100
AcDbLine
 10
457.3844550015
 20
1611.0030496373
 30
0.0
 11
457.2478010821
 21
1610.7090888635
 31
0.0
  0
ARC
  5
E0
330
1F
100
AcDbEntity
  8
0
  6
Continuous
 62
     7
370
    25
100
AcDbCircle
 10
461.087510464
 20
1597.9307395796
 30
0.0
 40
13.23176540087466
100
AcDbArc
 50
147.1703994986
 51
163.6173196308
  0
ARC
  5
E1
330
1F
100
AcDbEntity
  8
0
  6
Continuous
 62
     7
370
    25
100
AcDbCircle
 10
464.2942110399
 20
1596.4400787357
 30
0.0
 40
13.23190444936194
100
AcDbArc
 50
327.0151049641
 51
343.6141950359
  0
ARC
  5
E2
330
1F
100
AcDbEntity
  8
0
  6
Continuous
 62
     7
370
    25
100
AcDbCircle
 10
463.2899874294
 20
1598.4832017993
 30
0.0
 40
15.53366325428194
100
AcDbArc
 50
193.0972495701
 51
263.8626419
  0
ARC
  5
E3
330
1F
100
AcDbEntity
  8
0
  6
Continuous
 62
     7
370
    25
100
AcDbCircle
 10
462.6629376666
 20
1597.122840943
 30
0.0
 40
15.51991519592202
100
AcDbArc
 50
191.4769377789
 51
265.4829536923
  0
ARC
  5
E4
330
1F
100
AcDbEntity
  8
0
  6
Continuous
 62
     7
370
    25
100
AcDbCircle
 10
463.4127553891
 20
1595.2695388301
 30
0.0
 40
13.53790688992684
100
AcDbArc
 50
295.4406121724
 51
334.8624661704
  0
ARC
  5
E5
330
1F
100
AcDbEntity
  8
0
  6
Continuous
 62
     7
370
    25
100
AcDbCircle
 10
462.3274618895
 20
1596.7465598643
 30
0.0
 40
12.37520902983748
100
AcDbArc
 50
46.5750726782
 51
151.71640585
  0
ARC
  5
E6
330
1F
100
AcDbEntity
  8
0
  6
Continuous
 62
     7
370
    25
100
AcDbCircle
 10
463.1850126813
 20
1596.6867989667
 30
0.0
 40
11.84774412086277
100
AcDbArc
 50
337.0803433691
 51
49.7873716457
  0
ARC
  5
E7
330
1F
100
AcDbEntity
  8
0
  6
Continuous
 62
     7
370
    25
100
AcDbCircle
 10
463.8962958024
 20
1596.7696405379
 30
0.0
 40
13.74523084214738
100
AcDbArc
 50
288.9434350885
 51
326.7657960257
  0
ENDSEC
  0
SECTION
  2
OBJECTS
  0
DICTIONARY
  5
C
330
0
100
AcDbDictionary
281
     1
  3
ACAD_GROUP
350
D
  3
ACAD_LAYOUT
350
1A
  3
ACAD_MLINESTYLE
350
17
  3
ACAD_PLOTSETTINGS
350
19
  3
ACAD_PLOTSTYLENAME
350
E
  3
ACAD_SCALELIST
350
47
  3
DWGPROPS
350
E8
  0
DICTIONARY
  5
D
102
{ACAD_REACTORS
330
C
102
}
330
C
100
AcDbDictionary
281
     1
  0
DICTIONARY
  5
1A
102
{ACAD_REACTORS
330
C
102
}
330
C
100
AcDbDictionary
281
     1
  3
Layout1
350
1E
  3
Layout2
350
26
  3
Model
350
22
  0
DICTIONARY
  5
17
102
{ACAD_REACTORS
330
C
102
}
330
C
100
AcDbDictionary
281
     1
  3
Standard
350
18
  0
DICTIONARY
  5
19
102
{ACAD_REACTORS
330
C
102
}
330
C
100
AcDbDictionary
281
     1
  0
ACDBDICTIONARYWDFLT
  5
E
102
{ACAD_REACTORS
330
C
102
}
330
C
100
AcDbDictionary
281
     1
  3
Normal
350
F
100
AcDbDictionaryWithDefault
340
F
  0
DICTIONARY
  5
47
102
{ACAD_REACTORS
330
C
102
}
330
C
100
AcDbDictionary
281
     1
  3
A0
350
48
  3
A1
350
49
  3
A2
350
4A
  3
A3
350
4B
  3
A4
350
4C
  3
A5
350
4D
  3
A6
350
4E
  3
A7
350
4F
  3
A8
350
50
  3
A9
350
51
  3
B0
350
52
  3
B1
350
53
  3
B2
350
54
  3
B3
350
55
  3
B4
350
56
  3
B5
350
57
  3
B6
350
58
  0
XRECORD
  5
E8
102
{ACAD_REACTORS
330
C
102
}
330
C
100
AcDbXrecord
280
     1
  1
DWGPROPS COOKIE
  2

  3

  4

  6

  7

  8
Unipod
  9

300
=
301
=
302
=
303
=
304
=
305
=
306
=
307
=
308
=
309
=
 40
0.0
 41
2461053.502615405
 42
2461053.502738264
  1

 90
        0
  0
LAYOUT
  5
1E
102
{ACAD_REACTORS
330
1A
102
}
330
1A
100
AcDbPlotSettings
  1

  2
none_device
  4

  6

 40
0.0
 41
0.0
 42
0.0
 43
0.0
 44
0.0
 45
0.0
 46
0.0
 47
0.0
 48
0.0
 49
0.0
140
0.0
141
0.0
142
1.0
143
1.0
 70
   688
 72
     1
 73
     0
 74
     5
  7

 75
    16
147
1.0
148
0.0
149
0.0
100
AcDbLayout
  1
Layout1
 70
     1
 71
     1
 10
0.0
 20
0.0
 11
420.0
 21
297.0
 12
0.0
 22
0.0
 32
0.0
 14
1.0000000000E+20
 24
1.0000000000E+20
 34
1.0000000000E+20
 15
-1.0000000000E+20
 25
-1.0000000000E+20
 35
-1.0000000000E+20
146
0.0
 13
0.0
 23
0.0
 33
0.0
 16
1.0
 26
0.0
 36
0.0
 17
0.0
 27
1.0
 37
0.0
 76
     0
330
1B
  0
LAYOUT
  5
26
102
{ACAD_REACTORS
330
1A
102
}
330
1A
100
AcDbPlotSettings
  1

  2
none_device
  4

  6

 40
0.0
 41
0.0
 42
0.0
 43
0.0
 44
0.0
 45
0.0
 46
0.0
 47
0.0
 48
0.0
 49
0.0
140
0.0
141
0.0
142
1.0
143
1.0
 70
   688
 72
     1
 73
     0
 74
     5
  7

 75
    16
147
1.0
148
0.0
149
0.0
100
AcDbLayout
  1
Layout2
 70
     1
 71
     2
 10
0.0
 20
0.0
 11
0.0
 21
0.0
 12
0.0
 22
0.0
 32
0.0
 14
0.0
 24
0.0
 34
0.0
 15
0.0
 25
0.0
 35
0.0
146
0.0
 13
0.0
 23
0.0
 33
0.0
 16
1.0
 26
0.0
 36
0.0
 17
0.0
 27
1.0
 37
0.0
 76
     0
330
23
  0
LAYOUT
  5
22
102
{ACAD_REACTORS
330
1A
102
}
330
1A
100
AcDbPlotSettings
  1

  2
none_device
  4
ANSI_A_(11.00_x_8.50_Inches)
  6

 40
6.35
 41
19.05
 42
6.35000508
 43
19.05000254
 44
279.4
 45
215.9
 46
-2208.1842640934
 47
-7995.1755130857
 48
0.0
 49
0.0
140
0.0
141
0.0
142
0.1993194189
143
1.0
 70
  1696
 72
     0
 73
     0
 74
     0
  7

 75
     0
147
0.0179189148
148
-1300.4909072572
149
0.0
100
AcDbLayout
  1
Model
 70
     1
 71
     0
 10
0.0
 20
0.0
 11
420.0
 21
297.0
 12
0.0
 22
0.0
 32
0.0
 14
440.5783441707
 24
1575.6778302805
 34
0.0
 15
484.4332656117
 25
1617.8964964202
 35
0.0
146
0.0
 13
0.0
 23
0.0
 33
0.0
 16
1.0
 26
0.0
 36
0.0
 17
0.0
 27
1.0
 37
0.0
 76
     0
330
1F
331
29
  0
MLINESTYLE
  5
18
102
{ACAD_REACTORS
330
17
102
}
330
17
100
AcDbMlineStyle
  2
Standard
 70
     0
  3

 62
   256
 51
90.0
 52
90.0
 71
     2
 49
0.5
 62
   256
  6
BYLAYER
 49
-0.5
 62
   256
  6
BYLAYER
  0
ACDBPLACEHOLDER
  5
F
102
{ACAD_REACTORS
330
E
102
}
330
E
  0
SCALE
  5
48
102
{ACAD_REACTORS
330
47
102
}
330
47
100
AcDbScale
 70
     0
300
1:1
140
1.0
141
1.0
290
     1
  0
SCALE
  5
49
102
{ACAD_REACTORS
330
47
102
}
330
47
100
AcDbScale
 70
     0
300
1:2
140
1.0
141
2.0
290
     0
  0
SCALE
  5
4A
102
{ACAD_REACTORS
330
47
102
}
330
47
100
AcDbScale
 70
     0
300
1:4
140
1.0
141
4.0
290
     0
  0
SCALE
  5
4B
102
{ACAD_REACTORS
330
47
102
}
330
47
100
AcDbScale
 70
     0
300
1:5
140
1.0
141
5.0
290
     0
  0
SCALE
  5
4C
102
{ACAD_REACTORS
330
47
102
}
330
47
100
AcDbScale
 70
     0
300
1:8
140
1.0
141
8.0
290
     0
  0
SCALE
  5
4D
102
{ACAD_REACTORS
330
47
102
}
330
47
100
AcDbScale
 70
     0
300
1:10
140
1.0
141
10.0
290
     0
  0
SCALE
  5
4E
102
{ACAD_REACTORS
330
47
102
}
330
47
100
AcDbScale
 70
     0
300
1:16
140
1.0
141
16.0
290
     0
  0
SCALE
  5
4F
102
{ACAD_REACTORS
330
47
102
}
330
47
100
AcDbScale
 70
     0
300
1:20
140
1.0
141
20.0
290
     0
  0
SCALE
  5
50
102
{ACAD_REACTORS
330
47
102
}
330
47
100
AcDbScale
 70
     0
300
1:30
140
1.0
141
30.0
290
     0
  0
SCALE
  5
51
102
{ACAD_REACTORS
330
47
102
}
330
47
100
AcDbScale
 70
     0
300
1:40
140
1.0
141
40.0
290
     0
  0
SCALE
  5
52
102
{ACAD_REACTORS
330
47
102
}
330
47
100
AcDbScale
 70
     0
300
1:50
140
1.0
141
50.0
290
     0
  0
SCALE
  5
53
102
{ACAD_REACTORS
330
47
102
}
330
47
100
AcDbScale
 70
     0
300
1:100
140
1.0
141
100.0
290
     0
  0
SCALE
  5
54
102
{ACAD_REACTORS
330
47
102
}
330
47
100
AcDbScale
 70
     0
300
2:1
140
2.0
141
1.0
290
     0
  0
SCALE
  5
55
102
{ACAD_REACTORS
330
47
102
}
330
47
100
AcDbScale
 70
     0
300
4:1
140
4.0
141
1.0
290
     0
  0
SCALE
  5
56
102
{ACAD_REACTORS
330
47
102
}
330
47
100
AcDbScale
 70
     0
300
8:1
140
8.0
141
1.0
290
     0
  0
SCALE
  5
57
102
{ACAD_REACTORS
330
47
102
}
330
47
100
AcDbScale
 70
     0
300
10:1
140
10.0
141
1.0
290
     0
  0
SCALE
  5
58
102
{ACAD_REACTORS
330
47
102
}
330
47
100
AcDbScale
 70
     0
300
100:1
140
100.0
141
1.0
290
     0
  0
ENDSEC
  0
EOF
